#!OML:ASF F:\VICON\USERDATA\INSTALL\rory3\rory3.ASF
:FULLY-SPECIFIED
:DEGREES
95
root 0.17893793095738075 18.109064874145893 34.217116612469006 3.7189382150576247 3.054810293094942 -5.503694126553455
lfemur -41.87596200013715 8.60176662869424 -10.517264378040114
ltibia 81.84847080325494
lfoot -4.5606608073331705 -4.275524113430219
ltoes -9.626932518146749
rfemur -12.874981522886591 -1.7277812884673434 32.338207387522594
rtibia 92.01893337042455
rfoot -19.668283319289984 -18.727611308940194
rtoes -33.06855557353878
lowerback nan 1.3338767739794049 7.187978983744484
upperback -1.382630077548007 2.5035731352871533 1.8283750664596747
thorax -8.922583077330675 1.3444214761497824 -2.494236883619261
lowerneck -22.784209157457983 -4.650722094168172 -1.2242947956532153
upperneck 10.784288791828573 -7.019015395358123 4.486801820479015
head 7.329668719415428 -3.1586775508562486 0.7473030829952401
lclavicle -1.9281875100109523e-14 1.5894196999323682e-14
lhumerus -68.06192504588938 -11.60046677884159 99.441188672082
lradius 107.55328447200887
lwrist 30.39338428799704
lhand -23.740905342815502 0.1749603848558472
lfingers nan
lthumb 2.71649986897158 30.36690788771458
rclavicle -1.9037197888285346e-14 1.5794982263660766e-14
rhumerus -38.26528919878004 9.866567369682269 -95.6965670305054
rradius 111.4387765853923
rwrist -21.92663574134913
rhand -16.223429204202308 nan
rfingers nan
rthumb 9.73021209079744 10.551947904582306
96
root 0.1976530021914732 18.162907532079444 34.48547708516973 3.7777076949677766 2.960069835453968 -5.467076356550669
lfemur -43.31525356288739 8.210768626048651 -11.223018271182378
ltibia 79.2123636100811
lfoot -3.479625942812105 -3.746199862995769
ltoes -4.17282736713434
rfemur -11.151992565875865 -1.83203087762954 31.904875236536263
rtibia 90.42872750760566
rfoot -16.944676744283903 -16.72234063473153
rtoes -36.259050227376235
lowerback nan 1.7148081952723513 7.258878645107471
upperback -1.5486916621046343 3.0397064224209167 1.5751577483071433
thorax -8.605976754941333 1.5520515938923647 -2.881128138880471
lowerneck -23.015945578350888 -4.740186717497795 -1.19192721311411
upperneck 11.091995927827126 -7.0709734966435 4.492566566179079
head 7.446900533801813 -3.2144109079962364 0.7208938201658182
lclavicle 8.20349405197486e-15 -6.116622691641749e-15
lhumerus -68.91228334985426 -10.987401355042298 99.2229887542168
lradius 108.0451949082173
lwrist 30.27591681190908
lhand -23.277313982088277 0.20209993827301753
lfingers nan
lthumb 3.1432083888453826 30.33897185803209
rclavicle 7.759879967982802e-15 -6.770593505999719e-15
rhumerus -38.03048535066592 10.340939836104207 -95.57001987721893
rradius 112.16448626212296
rwrist -20.163594386213717
rhand -16.71751202619608 nan
rfingers nan
rthumb 9.23855519268402 11.15873239269108
97
root 0.2301688938263669 18.211393445553345 35.00981716903692 3.6747439698894366 3.488562704455843 -5.435445788360283
lfemur -44.44793599429086 7.359866565371381 -11.829893176379104
ltibia 76.56987024404827
lfoot -3.912219031558791 -2.903296327747891
ltoes -6.63198225907803
rfemur -9.466782993211675 -2.315725788742279 31.617948275592163
rtibia 88.68903953995141
rfoot -13.429092171638725 -13.861366042738172
rtoes -34.78122449745219
lowerback nan 1.791889443033928 7.572169722947766
upperback -1.8867123743537955 3.272305936863405 1.4232039088623525
thorax -8.750705392892561 1.575772000751327 -3.182546752634221
lowerneck -22.480724610941046 -4.715251092696397 -1.0326844967289177
upperneck 11.17979413845228 -7.001975887982068 4.378346449816219
head 7.423693748684258 -3.23159059031323 0.6572855919323345
lclavicle -4.0160655813219666e-14 6.425095219925058e-15
lhumerus -70.17402811552097 -9.797441918458317 98.92340630809055
lradius 108.9667923005005
lwrist 30.199807847915217
lhand -22.834060089616816 1.0669422856559383
lfingers nan
lthumb 3.577565882944719 31.178907085623127
rclavicle -4.068079570402898e-14 5.337131777958841e-15
rhumerus -38.2430630581583 10.932697940263834 -95.71903450496225
rradius 112.86955020768978
rwrist -18.472687323671064
rhand -17.30113275961935 nan
rfingers nan
rthumb 8.645628817692794 11.329037654399334
98
root 0.2491907560107708 18.26631880384307 35.48931126582307 3.4165392112308663 3.6928280674804608 -5.155608371936788
lfemur -44.88875999417387 6.546412441119304 -12.608100122967452
ltibia 73.4568100766885
lfoot -4.625885199203967 -2.119272038242584
ltoes -9.50967689644256
rfemur -7.805970398202259 -2.6991165715996424 30.97435102202244
rtibia 87.04945947628441
rfoot -10.102361171226718 -11.021242674863569
rtoes -32.24920507974933
lowerback nan 1.9594149227978188 7.532473439718686
upperback -1.9478031896515016 3.5812380773175265 1.2069209020958769
thorax -8.574414478935164 1.6501467228397537 -3.3909253236407304
lowerneck -22.31765191922769 -4.7081974426844 -0.9875686937542889
upperneck 11.41477029819302 -6.9426967190581585 4.338782285132195
head 7.484921684684685 -3.2330082248064773 0.6270007228005761
lclavicle 7.404047782055343e-15 -1.3882029176056146e-14
lhumerus -71.0720513647065 -8.600310867855095 98.40529270409354
lradius 109.8592992350079
lwrist 30.384213307978662
lhand -22.86961681272546 2.2181341541471697
lfingers nan
lthumb 3.561082020613007 32.33642904964256
rclavicle 6.769678326786075e-15 -1.5136843239054177e-14
rhumerus -38.04322230508713 11.44405380140979 -95.65948380694172
rradius 113.40723063485505
rwrist -16.86658941750052
rhand -17.48210560629049 nan
rfingers nan
rthumb 8.439134567616641 11.130860742035894
99
root 0.2686863710500587 18.30688520933588 36.268751684059026 3.0808716947970045 3.921290177817415 -4.83653422237993
lfemur -45.1319764664281 5.637170761169878 -13.384856308445084
ltibia 69.76770682340178
lfoot -4.351452692040092 -1.7113437201635628
ltoes -9.514251114547429
rfemur -6.12169696964744 -3.0439052774968145 30.304780978925656
rtibia 85.03156714716238
rfoot -5.130138811288156 -8.131605809352314
rtoes -26.643921734984968
lowerback nan 2.0821643965919363 7.5258029050872
upperback -1.7789422285161836 3.8514402820365747 0.9738130372307018
thorax -8.11668232313847 1.6906504579616248 -3.538971151642338
lowerneck -22.44084963743872 -4.712554385095071 -1.130148997651172
upperneck 11.566494619375694 -6.946402481298499 4.4208796613627
head 7.573899220680654 -3.242985336339798 0.6524404833901009
lclavicle 1.4952534164952096e-14 2.5653007114857587e-14
lhumerus -71.54387852974183 -7.441585574138544 97.82914653175102
lradius 110.47352190253429
lwrist 30.823023491980507
lhand -22.899398648725743 3.331907335863798
lfingers nan
lthumb 3.531701316403483 33.44423732242824
rclavicle 1.4343612146956224e-14 2.416348928249889e-14
rhumerus -37.67189490950381 11.990511970420712 -95.41692186218323
rradius 113.76319580192519
rwrist -15.078887384096458
rhand -17.796209170833368 nan
rfingers nan
rthumb 8.116811185836879 10.972045988089208
100
root 0.29402122472035785 18.320945077071606 37.02277556503971 2.6513678645153256 4.142333525398285 -4.207193107641822
lfemur -44.419079983685094 4.6771868205282825 -14.163242454089978
ltibia 66.65981434054859
lfoot -5.714752483779959 -0.684906031382444
ltoes -11.395602269265632
rfemur -4.640891774609587 -3.311371162686325 29.327408252500394
rtibia 83.11812641076509
rfoot 0.6806969931425213 -5.948899723356106
rtoes -22.702056036040215
lowerback nan 2.1478852569294498 7.187047271050005
upperback -1.7818010835146627 3.9986618961512193 0.6494491439854211
thorax -8.038613755046143 1.6621534866078622 -3.4558772998897194
lowerneck -21.993504280727116 -4.6892126422958444 -1.1955216851210622
upperneck 11.555490364736617 -6.924351702728405 4.548528219234081
head 7.55957295343821 -3.237645886077148 0.701085301049641
lclavicle -5.41263882362507e-14 -1.6341156064424828e-14
lhumerus -72.4509298243668 -6.079300214846992 97.20207814289012
lradius 111.19521995035211
lwrist 31.2038653473881
lhand -21.933870855793625 2.799306239258818
lfingers nan
lthumb 4.452305921511928 32.87408696075032
rclavicle -5.469564196127054e-14 -1.757406932417233e-14
rhumerus -37.76451524426681 12.715440523731612 -95.4438959262459
rradius 113.99273739792966
rwrist -13.543452092013275
rhand -18.134150962155655 nan
rfingers nan
rthumb 7.782273849939953 11.310453342127136
101
root 0.29630688041259 18.323296224104418 37.424713918772056 2.369890566564128 4.312339565861521 -3.5355806548446767
lfemur -44.460940696120346 3.843975499695536 -15.31458261882018
ltibia 61.99650075595271
lfoot -4.868491320061392 -0.903327963076503
ltoes -10.36703762259545
rfemur -3.0875501125131173 -3.5046445061875486 28.23930855751448
rtibia 80.84878342329202
rfoot 6.731863040068197 -4.696799836385279
rtoes -26.187329138643495
lowerback nan 2.2514671846879373 6.711434181589974
upperback -1.8831078121180664 4.158956029591425 0.31678454160526703
thorax -8.04852888253377 1.6602954416879476 -3.3286281520235947
lowerneck -21.437747767890375 -4.731746777349624 -1.323796366442079
upperneck 11.509301091384227 -6.9413472554497595 4.669188777723834
head 7.519534651803369 -3.2596897066287944 0.7554998121076251
lclavicle 2.4825857362710092e-14 -1.7406594769285518e-15
lhumerus -73.47679973865952 -4.873018587491803 96.60122401906634
lradius 112.08028621616248
lwrist 31.323743064726006
lhand -28.983368660687773 10.504087996661006
lfingers nan
lthumb -2.425535610006519 40.49142885420066
rclavicle 2.45011590270581e-14 -2.833726728581077e-15
rhumerus -37.919960371175584 13.361964526488205 -95.43520508469065
rradius 114.04272185902802
rwrist -11.998644136405098
rhand -18.895862210269748 nan
rfingers nan
rthumb 7.046789026314141 11.33784590953841
